# xmcd
#
# Track frame offsets:
#	150
#	1869
#	12840
#	22117
#	28072
#	38082
#	48170
#	57770
#	63447
#	71382
#	79357
#	89225
#	91332
#	101345
#	111687
#	121052
#	128500
#	130570
#	145080
#	152865
#	161700
#
# Disc length: 2274 seconds
#
# Revision: 1
# Processed by: cddbd v1.5.2PL0 Copyright (c) Steve Scherf et al.
# Submitted via: EZCDAudioConverter 2.1.1.1
#
DISCID=1108e015
DTITLE=디제이처리 - 87'MIX MAG
DYEAR=1997
DGENRE=
TTITLE0=intro
TTITLE1=스크림 - 천사의 질투
TTITLE2=구피 - 겨울잠 자는 아이
TTITLE3=Stretch 'N' Vern - I'm Alive
TTITLE4=영턱스클럽 - 정
TTITLE5=유승준 - 침흘리는여자
TTITLE6=구피 - 많이많이
TTITLE7=미상 -  Crazy ilittle saxophone
TTITLE8=김완선 - 탈렌트
TTITLE9=쿨 - 운명
TTITLE10=김민규 - 아가씨
TTITLE11=처리 - 철이와함께
TTITLE12=마운틴 - 탱고탱고
TTITLE13=영턱스클럽 - 못난이 컴플렉스
TTITLE14=미상 - 카운트다운
TTITLE15=미상 - 환상 체험
TTITLE16=처리 - 디제이처리와함께
TTITLE17=미상 - Mission impossible
TTITLE18=쿨 - 운명의 장난
TTITLE19=미상 - 건드리지마
TTITLE20=미상 - These sounds all into my mino
EXTD=
EXTT0=
EXTT1=
EXTT2=
EXTT3=
EXTT4=
EXTT5=
EXTT6=
EXTT7=
EXTT8=
EXTT9=
EXTT10=
EXTT11=
EXTT12=
EXTT13=
EXTT14=
EXTT15=
EXTT16=
EXTT17=
EXTT18=
EXTT19=
EXTT20=
PLAYORDER=
